<svg width="212" height="161" viewBox="0 0 212 161" fill="none" xmlns="http://www.w3.org/2000/svg">
<path d="M210.963 113.065C211.163 114.705 200.11 24.5917 200.11 24.5917C200.11 24.5917 196.851 -1.98537 170.303 1.27763L24.5664 19.1903C24.5664 19.1903 -1.98156 22.4512 1.27721 49.0282L12.0372 136.757C12.0372 136.757 15.3002 163.332 41.8482 160.067C41.8482 160.067 170.967 144.063 170.753 144.178C171.77 143.926 174.383 141.736 177.895 139.133C181.315 136.594 197.66 124.087 209.329 115.346C210.973 114.119 211.089 114.119 210.963 113.065Z" fill="white"/>
<path d="M210.963 113.065C211.163 114.705 200.11 24.5917 200.11 24.5917C200.11 24.5917 196.851 -1.98537 170.303 1.27763L24.5664 19.1903C24.5664 19.1903 -1.98156 22.4512 1.27721 49.0282L12.0372 136.757C12.0372 136.757 15.3002 163.332 41.8482 160.067C41.8482 160.067 170.967 144.063 170.753 144.178C171.77 143.926 174.383 141.736 177.895 139.133C181.315 136.594 197.66 124.087 209.329 115.346C210.973 114.119 211.089 114.119 210.963 113.065Z" stroke="white" stroke-width="1.107"/>
<path d="M40.4299 148.047L175.394 131.475C177.184 127.422 178.987 123.4 180.071 121.131C184.025 112.875 189.843 108.179 196.402 107.375C196.93 107.309 197.427 107.323 197.928 107.325L187.95 26.0658C187.95 26.0658 186.164 11.5111 171.607 13.2968L26.0754 31.1662C26.0754 31.1662 11.5228 32.9524 13.3106 47.507L24.0848 135.277C24.0848 135.277 25.8774 149.833 40.4299 148.047ZM210.448 111.469L199.808 24.8245C199.808 24.8245 196.559 -1.63693 170.1 1.61128L24.8272 19.4495C24.8272 19.4495 -1.63843 22.6977 1.60978 49.1597L12.3386 136.522C12.3386 136.522 15.5868 162.987 42.0503 159.735L168.131 144.256C168.131 144.256 169.843 144.06 170.637 142.268C171.25 140.886 172.159 138.811 173.174 136.501L40.9119 152.741C21.7268 155.094 19.3714 135.911 19.3714 135.911L8.58245 48.0377C6.22496 28.8504 25.4122 26.4929 25.4122 26.4929L171.124 8.60085C190.309 6.24759 192.664 25.4327 192.664 25.4327L202.842 108.309C205.612 109.464 207.599 111.277 208.671 112.023C209.456 112.573 210.658 113.16 210.448 111.469Z" fill="#EB690B"/>
<path d="M170.411 143.975C170.411 143.975 170.46 143.957 170.545 143.914C170.511 143.92 170.438 143.971 170.411 143.975ZM210.629 112.929C210.829 114.563 209.54 113.709 208.754 113.158C206.978 111.92 202.424 107.66 196.526 108.381C189.965 109.185 184.823 113.616 180.87 121.874C178.657 126.498 173.812 137.537 171.784 142.13C171.213 143.417 170.758 143.796 170.545 143.914C171.562 143.66 174.164 141.48 177.662 138.887C181.073 136.361 197.371 123.905 209.005 115.2C210.639 113.979 210.755 113.979 210.629 112.929Z" fill="#B45309"/>
<path d="M168.406 91.2628L170.456 91.0109C173.04 90.6915 173.83 92.5205 174.432 97.4334L174.655 99.2381C175.365 105.021 174.446 106.553 172.271 106.82L170.344 107.057L168.406 91.2628ZM164.112 90.7184L166.312 108.623C166.502 110.175 167.3 110.769 168.822 110.584L174.075 109.941C178.021 109.456 179.926 106.197 179.102 99.4799L178.743 96.5881C177.914 89.8087 175.802 87.0098 171.514 87.5399L166.075 88.2062C164.553 88.3942 163.922 89.1635 164.112 90.7184ZM131.949 106.092L132.707 96.5654L132.766 96.557L135.74 105.626L131.949 106.092ZM127.253 112.535C127.175 113.174 127.166 113.9 127.216 114.274C127.346 115.362 128.15 115.99 129.392 115.835C130.728 115.674 131.221 115.045 131.328 113.612L131.671 109.466L136.798 108.837L137.856 112.053C138.516 114.086 139.182 114.635 140.706 114.445C141.731 114.321 142.692 113.665 142.521 112.267C142.478 111.926 142.239 111.263 142.002 110.596L136.01 94.4556C135.204 92.2507 134.348 91.6921 132.232 91.9518C129.903 92.2385 129.425 92.9582 129.175 95.2951L127.253 112.535ZM57.3952 103.318L59.7158 122.216C59.8747 123.52 60.9428 124.24 62.0606 124.106C63.1762 123.965 64.0363 123.01 63.8774 121.707L62.3552 109.301L62.417 109.295L68.8891 121.121C69.7883 122.775 70.5475 123.062 72.2551 122.851C73.3771 122.715 74.2329 121.756 74.0492 120.265L71.7514 101.554C71.5946 100.25 70.5264 99.5285 69.4081 99.6647C68.2904 99.8031 67.4303 100.76 67.5913 102.066L69.0908 114.282L69.0269 114.288L62.5775 102.649C61.6123 100.94 60.7359 100.731 59.4301 100.89C57.9729 101.07 57.2363 102.014 57.3952 103.318ZM43.4177 89.1735L39.208 54.9079C38.9192 52.5382 36.9846 51.2325 34.9572 51.4801C32.9254 51.732 31.3642 53.4665 31.6551 55.834L35.8627 90.0996C36.1536 92.465 38.086 93.7771 40.1178 93.5274C42.1452 93.276 43.7065 91.5395 43.4177 89.1735ZM48.6897 116.188C49.3618 121.659 48.6464 122.536 46.9695 122.744C45.2863 122.947 44.3834 122.27 43.7107 116.798L43.131 112.073C42.5391 107.253 43.2509 106.092 44.8987 105.892C46.5487 105.688 47.5202 106.641 48.1079 111.461L48.6897 116.188ZM53.0372 115.656L52.4575 110.928C51.449 102.722 47.9759 102.169 44.4964 102.598C41.0127 103.025 37.7766 104.401 38.7835 112.605L39.3633 117.332C40.3965 125.758 43.517 126.506 47.374 126.034C51.2262 125.562 54.0726 124.077 53.0372 115.656ZM69.0338 69.9535C70.3189 80.4353 68.6563 83.2151 64.7127 83.6977L61.219 84.1264L57.7004 55.4971L61.4233 55.0393C66.1008 54.4638 67.5385 57.7786 68.6293 66.6821L69.0338 69.9535ZM77.0936 70.3907L76.4521 65.1499C74.9447 52.8635 71.1167 47.7837 63.3367 48.7409L53.4717 49.9516C50.7119 50.2901 49.5672 51.6903 49.9141 54.5098L53.901 86.9707C54.2474 89.7881 55.6951 90.8689 58.457 90.5305L67.9815 89.361C75.1405 88.4829 78.5889 82.5652 77.0936 70.3907ZM92.6282 100.406L94.8394 100.138C96.143 99.9768 97.1742 100.641 97.434 102.755C97.6837 104.807 96.972 105.937 95.256 106.146L93.3626 106.381L92.6282 100.406ZM93.7481 109.518L96.1737 109.221C98.1019 108.982 98.8157 110.411 99.0343 112.214C99.3374 114.672 98.6505 116.017 97.0934 116.21L94.6039 116.513L93.7481 109.518ZM90.3182 97.5079C88.796 97.6953 88.1651 98.4667 88.3567 100.02L90.5532 117.924C90.7448 119.479 91.5432 120.073 93.0654 119.888L98.4446 119.228C102.732 118.7 103.82 115.225 103.374 111.584C103.081 109.222 102.198 107.438 99.7994 106.882C101.192 106.144 101.835 104.205 101.563 101.996C101.136 98.5121 99.5169 96.3796 95.9139 96.821L90.3182 97.5079ZM95.3304 79.1375L93.9899 68.2022L104.473 66.9149C107.291 66.5707 108.237 64.9677 108 63.05C107.765 61.134 106.459 59.8055 103.64 60.1545L93.1583 61.4418L92.0073 52.0842L103.225 50.7066C106.04 50.3624 106.989 48.7594 106.756 46.8396C106.519 44.9256 105.213 43.5993 102.394 43.9441L87.6825 45.7509C84.9227 46.0915 83.7801 47.4896 84.1249 50.3069L88.1096 82.77C88.456 85.5895 89.9059 86.6703 92.6678 86.3298L107.773 84.4776C110.588 84.1291 111.535 82.5266 111.3 80.6105C111.065 78.6923 109.759 77.366 106.942 77.7129L95.3304 79.1375ZM117.483 107.742C118.156 113.214 117.438 114.09 115.759 114.296C114.078 114.503 113.179 113.824 112.507 108.352L111.925 103.627C111.331 98.8052 112.042 97.6483 113.688 97.4461C115.34 97.2418 116.308 98.1948 116.902 103.015L117.483 107.742ZM121.251 102.481C120.243 94.2761 116.77 93.7232 113.286 94.1504C109.804 94.5791 106.568 95.9551 107.575 104.157L108.157 108.885C109.192 117.31 112.311 118.061 116.163 117.588C120.018 117.114 122.864 115.629 121.831 107.206L121.251 102.481ZM133.467 64.9561L126.589 65.8035L127.959 48.526L128.07 48.5155L133.467 64.9561ZM145.755 77.0091C145.681 76.3882 145.244 75.1817 144.813 73.9774L133.954 44.7028C132.488 40.7059 130.935 39.6975 127.102 40.1674C122.876 40.6848 122.004 41.9926 121.552 46.225L118.068 77.4922C117.926 78.6533 117.916 79.969 117.996 80.6459C118.242 82.6196 119.698 83.7542 121.95 83.4797C124.375 83.1829 125.262 82.0419 125.462 79.4432L126.081 71.9298L135.38 70.7873L137.296 76.6158C138.496 80.3011 139.703 81.2975 142.465 80.9596C144.326 80.732 146.069 79.544 145.755 77.0091ZM154.321 96.0559C154.622 98.4794 153.531 99.3701 151.852 99.5787L150.231 99.7767L149.451 93.4302L151.258 93.2095C153.249 92.9645 154.047 93.8141 154.321 96.0559ZM152.863 89.8293L147.141 90.5326C145.621 90.7184 144.99 91.4893 145.182 93.0406L147.438 111.444C147.601 112.749 148.667 113.469 149.781 113.331C150.899 113.197 151.763 112.238 151.6 110.932L150.617 102.911L152.421 102.691C154.038 102.495 154.915 103.171 155.164 104.718L156.051 110.419C156.297 111.871 157.309 112.409 158.858 112.217C160.26 112.046 160.766 111.289 160.683 110.637C160.547 109.52 160.13 108.435 159.978 107.191L159.685 104.799C159.363 102.186 158.82 100.866 156.519 100.361C158.319 99.3501 158.965 97.9144 158.604 94.9593C158.213 91.7866 156.622 89.3694 152.863 89.8293ZM172.4 44.7313C171.885 40.5613 168.385 34.8663 159.931 35.906C153.508 36.6958 148.404 40.8147 149.287 47.9695C149.792 52.0842 151.355 55.0378 155.643 57.3725L163.547 61.6086C166.55 63.2422 167.779 64.4075 168.117 67.1689C168.436 69.7614 167.292 72.0755 164.301 72.4425C161.257 72.8158 159.685 70.7223 159.178 67.9794C158.51 64.3991 157.225 63.2417 154.855 63.5326C151.641 63.9265 151.322 66.426 151.652 69.132C151.893 71.1056 154.217 79.7457 164.136 78.5244C172.813 77.4621 176.447 72.5534 175.587 65.5638C174.859 59.6466 172.023 57.0188 167.575 54.8181L161.546 51.8418C157.522 49.8164 156.976 48.1686 156.749 46.3085C156.452 43.885 157.964 42.2123 160.269 41.9298C162.414 41.6658 164.108 42.4309 164.794 45.2071C165.485 48.0408 166.108 49.394 169.152 49.0186C171.291 48.7594 172.712 47.2662 172.4 44.7313Z" fill="white"/>
</svg>
